<svg xmlns="http://www.w3.org/2000/svg" viewBox="0 0 100 100">
  <circle cx="50" cy="50" r="48" fill="#0f172a" />
  
  <g stroke="#22c55e" stroke-width="1.5" opacity="0.3" fill="none">
    <path d="M25,25 L25,75 H75" />
    <path d="M75,25 V75" />
    <circle cx="25" cy="25" r="2.5" fill="#4ade80" stroke="none" />
    <circle cx="75" cy="25" r="2.5" fill="#4ade80" stroke="none" />
    <circle cx="75" cy="75" r="2.5" fill="#4ade80" stroke="none" />
  </g>

  <g transform="translate(50, 52)">
    
    <path d="M20,5 C35,-20 50,-5 40,15 C35,25 20,25 15,10" fill="#f97316" />
    
    <ellipse cx="-12" cy="-28" rx="7" ry="9" fill="#8b4513" transform="rotate(-10)" />
    <ellipse cx="12" cy="-28" rx="7" ry="9" fill="#8b4513" transform="rotate(10)" />
    
    <rect x="-20" y="-25" width="40" height="38" rx="14" fill="#a0522d" />
    
    <rect x="-20" y="-8" width="40" height="20" rx="10" fill="#d2b48c" />
    
    <g transform="translate(0, -6) scale(0.85)">
        <path d="M-12,-20 Q-12,-35 0,-35 Q12,-35 12,-20 Z" fill="#ffffff" />
        <rect x="-14" y="-22" width="28" height="3" rx="1.5" fill="#cbd5e1" />
    </g>

    <g fill="none" stroke="#1e293b" stroke-width="2.5">
      <circle cx="-9" cy="-5" r="8" /> <circle cx="9" cy="-5" r="8" />  <path d="M-1,-5 Q0,-6 1,-5" />  </g>

    <circle cx="-9" cy="-5" r="3" fill="#1e293b" />
    <circle cx="9" cy="-5" r="3" fill="#1e293b" />

    <circle cx="0" cy="5" r="2.5" fill="#1e293b" />
    
    <rect x="-2" y="6" width="4" height="5" rx="0.5" fill="#ffffff" />
  </g>
</svg>